<svg xmlns="http://www.w3.org/2000/svg" xmlns:xlink="http://www.w3.org/1999/xlink" width="1000" zoomAndPan="magnify" viewBox="0 0 750 275.999989" height="368" preserveAspectRatio="xMidYMid meet" version="1.0"><defs><filter x="0%" y="0%" width="100%" height="100%" id="fdc0ac8ce2"><feColorMatrix values="0 0 0 0 1 0 0 0 0 1 0 0 0 0 1 0 0 0 1 0" color-interpolation-filters="sRGB"/></filter><g/><clipPath id="74ac77f1dd"><path d="M 62 46 L 247 46 L 247 229.71875 L 62 229.71875 Z M 62 46 " clip-rule="nonzero"/></clipPath><clipPath id="167ce6ca9b"><path d="M 58.691406 76 L 250.691406 76 L 250.691406 145 L 58.691406 145 Z M 58.691406 76 " clip-rule="nonzero"/></clipPath><clipPath id="968ee27022"><path d="M 58.691406 76 L 93 76 L 93 145 L 58.691406 145 Z M 58.691406 76 " clip-rule="nonzero"/></clipPath><mask id="81a86f82fc"><g filter="url(#fdc0ac8ce2)"><rect x="-75" width="900" fill="#000000" y="-27.599999" height="331.199987" fill-opacity="0.82"/></g></mask><clipPath id="5c598cb9da"><rect x="0" width="477" y="0" height="68"/></clipPath><mask id="8e47b9fa07"><g filter="url(#fdc0ac8ce2)"><rect x="-75" width="900" fill="#000000" y="-27.599999" height="331.199987" fill-opacity="0.82"/></g></mask><clipPath id="05bb48985b"><rect x="0" width="222" y="0" height="69"/></clipPath></defs><g clip-path="url(#74ac77f1dd)"><path fill="#fee45a" d="M 246.566406 137.84375 C 246.566406 139.347656 246.527344 140.847656 246.457031 142.351562 C 246.382812 143.851562 246.269531 145.347656 246.125 146.84375 C 245.976562 148.339844 245.792969 149.832031 245.570312 151.316406 C 245.351562 152.804688 245.09375 154.285156 244.800781 155.757812 C 244.507812 157.234375 244.179688 158.699219 243.8125 160.15625 C 243.445312 161.613281 243.046875 163.0625 242.609375 164.5 C 242.171875 165.9375 241.703125 167.367188 241.195312 168.78125 C 240.6875 170.195312 240.148438 171.597656 239.574219 172.984375 C 238.996094 174.375 238.386719 175.746094 237.746094 177.105469 C 237.101562 178.464844 236.425781 179.804688 235.71875 181.132812 C 235.007812 182.457031 234.269531 183.765625 233.496094 185.054688 C 232.722656 186.34375 231.917969 187.613281 231.082031 188.863281 C 230.246094 190.109375 229.382812 191.339844 228.484375 192.546875 C 227.589844 193.753906 226.664062 194.9375 225.710938 196.101562 C 224.757812 197.261719 223.777344 198.398438 222.765625 199.511719 C 221.757812 200.625 220.71875 201.714844 219.65625 202.777344 C 218.59375 203.839844 217.503906 204.875 216.390625 205.886719 C 215.277344 206.894531 214.136719 207.875 212.976562 208.828125 C 211.8125 209.78125 210.628906 210.707031 209.421875 211.601562 C 208.214844 212.496094 206.984375 213.363281 205.734375 214.195312 C 204.484375 215.03125 203.214844 215.835938 201.925781 216.609375 C 200.632812 217.382812 199.328125 218.121094 198 218.832031 C 196.675781 219.539062 195.332031 220.214844 193.972656 220.855469 C 192.613281 221.5 191.238281 222.109375 189.851562 222.683594 C 188.460938 223.257812 187.058594 223.800781 185.644531 224.304688 C 184.226562 224.8125 182.800781 225.28125 181.359375 225.71875 C 179.921875 226.15625 178.472656 226.554688 177.015625 226.921875 C 175.554688 227.285156 174.089844 227.617188 172.613281 227.910156 C 171.140625 228.203125 169.660156 228.457031 168.171875 228.679688 C 166.683594 228.898438 165.191406 229.082031 163.695312 229.230469 C 162.199219 229.378906 160.699219 229.488281 159.199219 229.5625 C 157.699219 229.636719 156.195312 229.671875 154.691406 229.671875 C 153.1875 229.671875 151.683594 229.636719 150.183594 229.5625 C 148.679688 229.488281 147.183594 229.378906 145.6875 229.230469 C 144.1875 229.082031 142.699219 228.898438 141.210938 228.679688 C 139.722656 228.457031 138.242188 228.203125 136.765625 227.910156 C 135.292969 227.617188 133.824219 227.285156 132.367188 226.921875 C 130.910156 226.554688 129.460938 226.15625 128.019531 225.71875 C 126.582031 225.28125 125.15625 224.8125 123.738281 224.304688 C 122.324219 223.800781 120.921875 223.257812 119.53125 222.683594 C 118.144531 222.109375 116.769531 221.5 115.410156 220.855469 C 114.050781 220.214844 112.707031 219.539062 111.382812 218.832031 C 110.054688 218.121094 108.746094 217.382812 107.457031 216.609375 C 106.167969 215.835938 104.898438 215.03125 103.648438 214.195312 C 102.398438 213.363281 101.167969 212.496094 99.960938 211.601562 C 98.753906 210.707031 97.570312 209.78125 96.40625 208.828125 C 95.242188 207.875 94.105469 206.894531 92.992188 205.886719 C 91.878906 204.875 90.789062 203.839844 89.726562 202.777344 C 88.664062 201.714844 87.625 200.625 86.617188 199.511719 C 85.605469 198.398438 84.625 197.261719 83.671875 196.101562 C 82.714844 194.9375 81.792969 193.753906 80.894531 192.546875 C 80 191.339844 79.136719 190.109375 78.300781 188.863281 C 77.464844 187.613281 76.660156 186.34375 75.886719 185.054688 C 75.113281 183.765625 74.375 182.457031 73.664062 181.132812 C 72.957031 179.804688 72.28125 178.464844 71.636719 177.105469 C 70.992188 175.746094 70.386719 174.375 69.808594 172.984375 C 69.234375 171.597656 68.691406 170.195312 68.1875 168.78125 C 67.679688 167.367188 67.207031 165.9375 66.773438 164.5 C 66.335938 163.0625 65.933594 161.613281 65.570312 160.15625 C 65.203125 158.699219 64.875 157.234375 64.582031 155.757812 C 64.289062 154.285156 64.03125 152.804688 63.808594 151.316406 C 63.589844 149.832031 63.40625 148.339844 63.257812 146.84375 C 63.109375 145.347656 63 143.851562 62.925781 142.351562 C 62.851562 140.847656 62.816406 139.347656 62.816406 137.84375 C 62.816406 136.339844 62.851562 134.839844 62.925781 133.339844 C 63 131.835938 63.109375 130.339844 63.257812 128.84375 C 63.40625 127.347656 63.589844 125.855469 63.808594 124.371094 C 64.03125 122.882812 64.289062 121.402344 64.582031 119.929688 C 64.875 118.453125 65.203125 116.988281 65.570312 115.53125 C 65.933594 114.074219 66.335938 112.625 66.773438 111.1875 C 67.207031 109.75 67.679688 108.324219 68.1875 106.90625 C 68.691406 105.492188 69.234375 104.089844 69.808594 102.703125 C 70.386719 101.3125 70.992188 99.941406 71.636719 98.582031 C 72.28125 97.222656 72.957031 95.882812 73.664062 94.554688 C 74.375 93.230469 75.113281 91.921875 75.886719 90.632812 C 76.660156 89.34375 77.464844 88.074219 78.300781 86.828125 C 79.136719 85.578125 80 84.347656 80.894531 83.140625 C 81.792969 81.933594 82.714844 80.75 83.671875 79.589844 C 84.625 78.425781 85.605469 77.289062 86.617188 76.175781 C 87.625 75.0625 88.664062 73.972656 89.726562 72.910156 C 90.789062 71.847656 91.878906 70.8125 92.992188 69.804688 C 94.105469 68.792969 95.242188 67.8125 96.40625 66.859375 C 97.570312 65.90625 98.753906 64.980469 99.960938 64.085938 C 101.167969 63.191406 102.398438 62.324219 103.648438 61.492188 C 104.898438 60.65625 106.167969 59.851562 107.457031 59.078125 C 108.746094 58.308594 110.054688 57.566406 111.382812 56.859375 C 112.707031 56.148438 114.050781 55.472656 115.410156 54.832031 C 116.769531 54.1875 118.144531 53.578125 119.53125 53.003906 C 120.921875 52.429688 122.324219 51.890625 123.738281 51.382812 C 125.15625 50.875 126.582031 50.40625 128.019531 49.96875 C 129.460938 49.53125 130.910156 49.132812 132.367188 48.765625 C 133.824219 48.402344 135.292969 48.074219 136.765625 47.777344 C 138.242188 47.484375 139.722656 47.230469 141.210938 47.007812 C 142.699219 46.789062 144.1875 46.605469 145.6875 46.457031 C 147.183594 46.308594 148.679688 46.199219 150.183594 46.125 C 151.683594 46.050781 153.1875 46.015625 154.691406 46.015625 C 156.195312 46.015625 157.699219 46.050781 159.199219 46.125 C 160.699219 46.199219 162.199219 46.308594 163.695312 46.457031 C 165.191406 46.605469 166.683594 46.789062 168.171875 47.007812 C 169.660156 47.230469 171.140625 47.484375 172.613281 47.777344 C 174.089844 48.074219 175.554688 48.402344 177.015625 48.765625 C 178.472656 49.132812 179.921875 49.53125 181.359375 49.96875 C 182.800781 50.40625 184.226562 50.875 185.644531 51.382812 C 187.058594 51.890625 188.460938 52.429688 189.851562 53.003906 C 191.238281 53.578125 192.613281 54.1875 193.972656 54.832031 C 195.332031 55.472656 196.675781 56.148438 198 56.859375 C 199.328125 57.566406 200.632812 58.308594 201.925781 59.078125 C 203.214844 59.851562 204.484375 60.65625 205.734375 61.492188 C 206.984375 62.324219 208.214844 63.191406 209.421875 64.085938 C 210.628906 64.980469 211.8125 65.90625 212.976562 66.859375 C 214.136719 67.8125 215.277344 68.792969 216.390625 69.804688 C 217.503906 70.8125 218.59375 71.847656 219.65625 72.910156 C 220.71875 73.972656 221.757812 75.0625 222.765625 76.175781 C 223.777344 77.289062 224.757812 78.425781 225.710938 79.589844 C 226.664062 80.75 227.589844 81.933594 228.484375 83.140625 C 229.382812 84.347656 230.246094 85.578125 231.082031 86.828125 C 231.917969 88.074219 232.722656 89.34375 233.496094 90.632812 C 234.269531 91.921875 235.007812 93.230469 235.71875 94.554688 C 236.425781 95.882812 237.101562 97.222656 237.746094 98.582031 C 238.386719 99.941406 238.996094 101.3125 239.574219 102.703125 C 240.148438 104.089844 240.6875 105.492188 241.195312 106.90625 C 241.703125 108.324219 242.171875 109.75 242.609375 111.1875 C 243.046875 112.625 243.445312 114.074219 243.8125 115.53125 C 244.179688 116.988281 244.507812 118.453125 244.800781 119.929688 C 245.09375 121.402344 245.351562 122.882812 245.570312 124.371094 C 245.792969 125.855469 245.976562 127.347656 246.125 128.84375 C 246.269531 130.339844 246.382812 131.835938 246.457031 133.339844 C 246.527344 134.839844 246.566406 136.339844 246.566406 137.84375 Z M 246.566406 137.84375 " fill-opacity="1" fill-rule="nonzero"/></g><path fill="#fed402" d="M 191.964844 77.050781 C 181.128906 70.378906 168.378906 66.554688 154.691406 66.554688 C 141.003906 66.554688 128.253906 70.378906 117.414062 77.050781 Z M 191.964844 77.050781 " fill-opacity="1" fill-rule="nonzero"/><path fill="#fed402" d="M 193.390625 144.515625 L 193.804688 145.117188 C 199.351562 153.097656 202.277344 162.46875 202.277344 172.214844 C 202.277344 180.910156 199.953125 189.042969 195.867188 196.050781 C 212.402344 184.359375 223.726562 165.765625 225.714844 144.476562 L 193.390625 144.476562 Z M 193.390625 144.515625 " fill-opacity="1" fill-rule="nonzero"/><path fill="#fed402" d="M 107.101562 172.214844 C 107.101562 162.46875 110.027344 153.097656 115.578125 145.117188 L 115.992188 144.515625 L 83.664062 144.515625 C 85.652344 165.804688 96.976562 184.359375 113.515625 196.089844 C 109.429688 189.042969 107.101562 180.910156 107.101562 172.214844 Z M 107.101562 172.214844 " fill-opacity="1" fill-rule="nonzero"/><path fill="#fef0ae" d="M 193.839844 144.515625 L 174.527344 144.515625 C 183.152344 150.699219 188.777344 160.820312 188.777344 172.214844 C 188.777344 191.03125 173.515625 206.285156 154.691406 206.285156 C 135.867188 206.285156 120.601562 191.03125 120.601562 172.214844 C 120.601562 160.78125 126.226562 150.699219 134.851562 144.515625 L 115.539062 144.515625 C 109.992188 152.347656 106.726562 161.90625 106.726562 172.214844 C 106.726562 198.675781 128.214844 220.152344 154.691406 220.152344 C 181.164062 220.152344 202.652344 198.675781 202.652344 172.214844 C 202.652344 161.90625 199.390625 152.347656 193.839844 144.515625 Z M 193.839844 144.515625 " fill-opacity="1" fill-rule="nonzero"/><g clip-path="url(#167ce6ca9b)"><path fill="#05e39c" d="M 241.316406 76.675781 L 68.066406 76.675781 C 62.890625 76.675781 58.691406 80.871094 58.691406 86.042969 L 58.691406 135.519531 C 58.691406 140.691406 62.890625 144.890625 68.066406 144.890625 L 134.328125 144.890625 C 140.027344 140.65625 147.078125 138.144531 154.691406 138.144531 C 162.304688 138.144531 169.390625 140.65625 175.054688 144.890625 L 241.316406 144.890625 C 246.492188 144.890625 250.691406 140.691406 250.691406 135.519531 L 250.691406 86.042969 C 250.691406 80.871094 246.492188 76.675781 241.316406 76.675781 Z M 241.316406 76.675781 " fill-opacity="1" fill-rule="nonzero"/></g><g clip-path="url(#968ee27022)"><path fill="#0ed290" d="M 82.691406 135.519531 L 82.691406 86.042969 C 82.691406 80.871094 86.890625 76.675781 92.066406 76.675781 L 68.066406 76.675781 C 62.890625 76.675781 58.691406 80.871094 58.691406 86.042969 L 58.691406 135.519531 C 58.691406 140.691406 62.890625 144.890625 68.066406 144.890625 L 92.066406 144.890625 C 86.890625 144.890625 82.691406 140.691406 82.691406 135.519531 Z M 82.691406 135.519531 " fill-opacity="1" fill-rule="nonzero"/></g><path fill="#fef0ae" d="M 239.066406 113.21875 C 240.414062 113.21875 241.503906 112.132812 241.503906 110.78125 C 241.503906 109.433594 240.414062 108.347656 239.066406 108.347656 L 227.589844 108.347656 L 227.589844 101.226562 L 239.066406 101.226562 C 240.414062 101.226562 241.503906 100.136719 241.503906 98.789062 C 241.503906 97.4375 240.414062 96.351562 239.066406 96.351562 L 225.152344 96.351562 C 223.804688 96.351562 222.714844 97.4375 222.714844 98.789062 L 222.714844 122.738281 C 222.714844 124.089844 223.804688 125.175781 225.152344 125.175781 L 239.066406 125.175781 C 240.414062 125.175781 241.503906 124.089844 241.503906 122.738281 C 241.503906 121.390625 240.414062 120.300781 239.066406 120.300781 L 227.589844 120.300781 L 227.589844 113.179688 L 239.066406 113.179688 Z M 239.066406 113.21875 " fill-opacity="1" fill-rule="nonzero"/><path fill="#fef0ae" d="M 218.179688 120.339844 L 206.703125 120.339844 L 206.703125 98.824219 C 206.703125 97.476562 205.617188 96.390625 204.265625 96.390625 C 202.914062 96.390625 201.828125 97.476562 201.828125 98.824219 L 201.828125 122.777344 C 201.828125 124.125 202.914062 125.210938 204.265625 125.210938 L 218.179688 125.210938 C 219.527344 125.210938 220.617188 124.125 220.617188 122.777344 C 220.617188 121.425781 219.527344 120.339844 218.179688 120.339844 Z M 218.179688 120.339844 " fill-opacity="1" fill-rule="nonzero"/><path fill="#fef0ae" d="M 196.691406 110.257812 C 197.964844 108.796875 198.714844 106.882812 198.714844 104.785156 C 198.714844 100.136719 194.929688 96.351562 190.277344 96.351562 L 183.414062 96.351562 C 182.066406 96.351562 180.976562 97.4375 180.976562 98.789062 L 180.976562 122.738281 C 180.976562 124.089844 182.066406 125.175781 183.414062 125.175781 L 191.328125 125.175781 C 195.976562 125.175781 199.765625 121.390625 199.765625 116.742188 C 199.765625 114.15625 198.566406 111.792969 196.691406 110.257812 Z M 185.851562 101.226562 L 190.277344 101.226562 C 192.226562 101.226562 193.839844 102.835938 193.839844 104.785156 C 193.839844 106.734375 192.226562 108.347656 190.277344 108.347656 L 185.851562 108.347656 Z M 191.328125 120.339844 L 185.851562 120.339844 L 185.851562 113.21875 L 191.328125 113.21875 C 193.277344 113.21875 194.890625 114.832031 194.890625 116.78125 C 194.890625 118.726562 193.277344 120.339844 191.328125 120.339844 Z M 191.328125 120.339844 " fill-opacity="1" fill-rule="nonzero"/><path fill="#fef0ae" d="M 154.914062 120.339844 L 143.441406 120.339844 L 143.441406 98.824219 C 143.441406 97.476562 142.351562 96.390625 141.003906 96.390625 C 139.652344 96.390625 138.566406 97.476562 138.566406 98.824219 L 138.566406 122.777344 C 138.566406 124.125 139.652344 125.210938 141.003906 125.210938 L 154.914062 125.210938 C 156.265625 125.210938 157.351562 124.125 157.351562 122.777344 C 157.351562 121.425781 156.226562 120.339844 154.914062 120.339844 Z M 154.914062 120.339844 " fill-opacity="1" fill-rule="nonzero"/><path fill="#fef0ae" d="M 133.316406 96.351562 C 131.964844 96.351562 130.878906 97.4375 130.878906 98.789062 L 130.878906 122.738281 C 130.878906 124.089844 131.964844 125.175781 133.316406 125.175781 C 134.664062 125.175781 135.753906 124.089844 135.753906 122.738281 L 135.753906 98.789062 C 135.753906 97.4375 134.664062 96.351562 133.316406 96.351562 Z M 133.316406 96.351562 " fill-opacity="1" fill-rule="nonzero"/><path fill="#fef0ae" d="M 78.304688 96.351562 L 76.203125 96.351562 C 71.589844 96.351562 67.839844 100.101562 67.839844 104.710938 L 67.839844 122.777344 C 67.839844 124.125 68.929688 125.210938 70.277344 125.210938 C 71.628906 125.210938 72.714844 124.125 72.714844 122.777344 L 72.714844 117.117188 L 81.753906 117.117188 L 81.753906 122.777344 C 81.753906 124.125 82.839844 125.210938 84.191406 125.210938 C 85.539062 125.210938 86.628906 124.125 86.628906 122.777344 L 86.628906 104.710938 C 86.664062 100.101562 82.914062 96.351562 78.304688 96.351562 Z M 72.753906 112.246094 L 72.753906 104.710938 C 72.753906 102.800781 74.328125 101.226562 76.242188 101.226562 L 78.339844 101.226562 C 80.253906 101.226562 81.828125 102.800781 81.828125 104.710938 L 81.828125 112.246094 Z M 72.753906 112.246094 " fill-opacity="1" fill-rule="nonzero"/><path fill="#fef0ae" d="M 119.367188 96.351562 L 117.265625 96.351562 C 112.652344 96.351562 108.902344 100.101562 108.902344 104.710938 L 108.902344 122.777344 C 108.902344 124.125 109.992188 125.210938 111.339844 125.210938 C 112.691406 125.210938 113.777344 124.125 113.777344 122.777344 L 113.777344 117.117188 L 122.816406 117.117188 L 122.816406 122.777344 C 122.816406 124.125 123.902344 125.210938 125.253906 125.210938 C 126.601562 125.210938 127.691406 124.125 127.691406 122.777344 L 127.691406 104.710938 C 127.726562 100.101562 123.976562 96.351562 119.367188 96.351562 Z M 113.816406 112.246094 L 113.816406 104.710938 C 113.816406 102.800781 115.390625 101.226562 117.304688 101.226562 L 119.402344 101.226562 C 121.316406 101.226562 122.890625 102.800781 122.890625 104.710938 L 122.890625 112.246094 Z M 113.816406 112.246094 " fill-opacity="1" fill-rule="nonzero"/><path fill="#fef0ae" d="M 170.214844 96.351562 L 168.117188 96.351562 C 163.503906 96.351562 159.753906 100.101562 159.753906 104.710938 L 159.753906 122.777344 C 159.753906 124.125 160.839844 125.210938 162.191406 125.210938 C 163.539062 125.210938 164.628906 124.125 164.628906 122.777344 L 164.628906 117.117188 L 173.664062 117.117188 L 173.664062 122.777344 C 173.664062 124.125 174.753906 125.210938 176.101562 125.210938 C 177.453125 125.210938 178.539062 124.125 178.539062 122.777344 L 178.539062 104.710938 C 178.539062 100.101562 174.789062 96.351562 170.214844 96.351562 Z M 164.628906 112.246094 L 164.628906 104.710938 C 164.628906 102.800781 166.203125 101.226562 168.117188 101.226562 L 170.214844 101.226562 C 172.128906 101.226562 173.703125 102.800781 173.703125 104.710938 L 173.703125 112.246094 Z M 164.628906 112.246094 " fill-opacity="1" fill-rule="nonzero"/><path fill="#fef0ae" d="M 105.902344 96.464844 C 104.628906 96.050781 103.242188 96.800781 102.867188 98.078125 L 97.804688 114.492188 L 92.742188 98.078125 C 92.328125 96.800781 90.976562 96.050781 89.703125 96.464844 C 88.429688 96.875 87.679688 98.226562 88.089844 99.5 L 95.476562 123.449219 C 95.777344 124.464844 96.753906 125.175781 97.804688 125.175781 C 98.851562 125.175781 99.828125 124.464844 100.128906 123.449219 L 107.515625 99.5 C 107.890625 98.226562 107.179688 96.875 105.902344 96.464844 Z M 105.902344 96.464844 " fill-opacity="1" fill-rule="nonzero"/><path fill="#6cf5c2" d="M 188.777344 172.214844 C 188.777344 173.332031 188.722656 174.441406 188.613281 175.554688 C 188.503906 176.664062 188.339844 177.765625 188.125 178.859375 C 187.90625 179.957031 187.636719 181.035156 187.3125 182.105469 C 186.988281 183.171875 186.609375 184.222656 186.183594 185.253906 C 185.757812 186.285156 185.28125 187.289062 184.753906 188.273438 C 184.226562 189.257812 183.652344 190.214844 183.035156 191.144531 C 182.414062 192.070312 181.75 192.964844 181.039062 193.828125 C 180.332031 194.691406 179.582031 195.515625 178.792969 196.304688 C 178.003906 197.09375 177.179688 197.84375 176.316406 198.550781 C 175.453125 199.257812 174.558594 199.921875 173.628906 200.542969 C 172.699219 201.164062 171.746094 201.734375 170.757812 202.261719 C 169.773438 202.789062 168.765625 203.265625 167.734375 203.691406 C 166.703125 204.117188 165.65625 204.492188 164.585938 204.816406 C 163.519531 205.140625 162.4375 205.414062 161.339844 205.628906 C 160.246094 205.847656 159.144531 206.011719 158.03125 206.121094 C 156.921875 206.230469 155.808594 206.285156 154.691406 206.285156 C 153.574219 206.285156 152.460938 206.230469 151.351562 206.121094 C 150.238281 206.011719 149.136719 205.847656 148.039062 205.628906 C 146.945312 205.414062 145.863281 205.140625 144.796875 204.816406 C 143.726562 204.492188 142.675781 204.117188 141.644531 203.691406 C 140.613281 203.265625 139.605469 202.789062 138.621094 202.261719 C 137.636719 201.734375 136.679688 201.164062 135.753906 200.542969 C 134.824219 199.921875 133.929688 199.257812 133.066406 198.550781 C 132.203125 197.84375 131.375 197.09375 130.585938 196.304688 C 129.796875 195.515625 129.050781 194.691406 128.339844 193.828125 C 127.632812 192.964844 126.96875 192.070312 126.347656 191.144531 C 125.726562 190.214844 125.15625 189.257812 124.628906 188.273438 C 124.101562 187.289062 123.625 186.285156 123.199219 185.253906 C 122.769531 184.222656 122.394531 183.171875 122.070312 182.105469 C 121.746094 181.035156 121.476562 179.957031 121.257812 178.859375 C 121.039062 177.765625 120.878906 176.664062 120.769531 175.554688 C 120.660156 174.441406 120.601562 173.332031 120.601562 172.214844 C 120.601562 171.097656 120.660156 169.984375 120.769531 168.875 C 120.878906 167.765625 121.039062 166.660156 121.257812 165.566406 C 121.476562 164.472656 121.746094 163.390625 122.070312 162.324219 C 122.394531 161.257812 122.769531 160.207031 123.199219 159.175781 C 123.625 158.144531 124.101562 157.136719 124.628906 156.152344 C 125.15625 155.167969 125.726562 154.214844 126.347656 153.285156 C 126.96875 152.359375 127.632812 151.460938 128.339844 150.601562 C 129.050781 149.738281 129.796875 148.910156 130.585938 148.121094 C 131.375 147.332031 132.203125 146.585938 133.066406 145.878906 C 133.929688 145.167969 134.824219 144.503906 135.753906 143.886719 C 136.679688 143.265625 137.636719 142.691406 138.621094 142.167969 C 139.605469 141.640625 140.613281 141.164062 141.644531 140.738281 C 142.675781 140.308594 143.726562 139.933594 144.796875 139.609375 C 145.863281 139.285156 146.945312 139.015625 148.039062 138.796875 C 149.136719 138.582031 150.238281 138.417969 151.351562 138.308594 C 152.460938 138.199219 153.574219 138.144531 154.691406 138.144531 C 155.808594 138.144531 156.921875 138.199219 158.03125 138.308594 C 159.144531 138.417969 160.246094 138.582031 161.339844 138.796875 C 162.4375 139.015625 163.519531 139.285156 164.585938 139.609375 C 165.65625 139.933594 166.703125 140.308594 167.734375 140.738281 C 168.765625 141.164062 169.773438 141.640625 170.757812 142.167969 C 171.746094 142.691406 172.699219 143.265625 173.628906 143.886719 C 174.558594 144.503906 175.453125 145.167969 176.316406 145.878906 C 177.179688 146.585938 178.003906 147.332031 178.792969 148.121094 C 179.582031 148.910156 180.332031 149.738281 181.039062 150.601562 C 181.75 151.460938 182.414062 152.359375 183.035156 153.285156 C 183.652344 154.214844 184.226562 155.167969 184.753906 156.152344 C 185.28125 157.136719 185.757812 158.144531 186.183594 159.175781 C 186.609375 160.207031 186.988281 161.257812 187.3125 162.324219 C 187.636719 163.390625 187.90625 164.472656 188.125 165.566406 C 188.339844 166.660156 188.503906 167.765625 188.613281 168.875 C 188.722656 169.984375 188.777344 171.097656 188.777344 172.214844 Z M 188.777344 172.214844 " fill-opacity="1" fill-rule="nonzero"/><path fill="#05e39c" d="M 139.691406 172.214844 C 139.691406 156.695312 150.039062 143.617188 164.253906 139.492188 C 161.214844 138.59375 158.027344 138.144531 154.691406 138.144531 C 135.867188 138.144531 120.601562 153.398438 120.601562 172.214844 C 120.601562 191.03125 135.867188 206.285156 154.691406 206.285156 C 157.992188 206.285156 161.214844 205.796875 164.253906 204.933594 C 150.039062 200.8125 139.691406 187.730469 139.691406 172.214844 Z M 139.691406 172.214844 " fill-opacity="1" fill-rule="nonzero"/><path fill="#00c285" d="M 154.691406 210.03125 C 133.839844 210.03125 116.851562 193.054688 116.851562 172.214844 C 116.851562 151.375 133.839844 134.394531 154.691406 134.394531 C 175.539062 134.394531 192.527344 151.375 192.527344 172.214844 C 192.527344 193.054688 175.539062 210.03125 154.691406 210.03125 Z M 154.691406 141.890625 C 137.964844 141.890625 124.351562 155.496094 124.351562 172.214844 C 124.351562 188.929688 137.964844 202.535156 154.691406 202.535156 C 171.414062 202.535156 185.027344 188.929688 185.027344 172.214844 C 185.027344 155.496094 171.414062 141.890625 154.691406 141.890625 Z M 154.691406 141.890625 " fill-opacity="1" fill-rule="nonzero"/><path fill="#ffffff" d="M 152.515625 187.28125 C 151.429688 187.28125 150.414062 186.832031 149.703125 186.007812 L 136.464844 171.089844 C 135.078125 169.554688 135.226562 167.191406 136.765625 165.804688 C 138.304688 164.417969 140.664062 164.566406 142.054688 166.105469 L 152.328125 177.648438 L 167.140625 158.757812 C 168.414062 157.148438 170.777344 156.847656 172.390625 158.121094 C 174.003906 159.394531 174.304688 161.757812 173.027344 163.367188 L 155.476562 185.820312 C 154.804688 186.683594 153.753906 187.207031 152.628906 187.246094 C 152.589844 187.28125 152.554688 187.28125 152.515625 187.28125 Z M 152.515625 187.28125 " fill-opacity="1" fill-rule="nonzero"/><g mask="url(#81a86f82fc)"><g transform="matrix(1, 0, 0, 1, 273, 64)"><g clip-path="url(#5c598cb9da)"><g fill="#545454" fill-opacity="1"><g transform="translate(0.597649, 54.463659)"><g><path d="M 30.34375 0 L 24.84375 0 L 10.625 -20.9375 L 6.09375 -15.890625 L 6.09375 0 L 1.609375 0 L 1.609375 -42.765625 L 6.09375 -42.765625 L 6.09375 -21.953125 L 24.421875 -42.765625 L 30.34375 -42.765625 L 13.5625 -24.09375 Z M 30.34375 0 "/></g></g></g><g fill="#545454" fill-opacity="1"><g transform="translate(37.241078, 54.463659)"><g><path d="M 4.484375 -13.703125 C 4.816406 -10.460938 6 -7.878906 8.03125 -5.953125 C 10.0625 -4.035156 12.707031 -3.078125 15.96875 -3.078125 C 18.257812 -3.078125 20.300781 -3.546875 22.09375 -4.484375 C 23.882812 -5.429688 25.226562 -6.601562 26.125 -8 L 29.265625 -5.828125 C 27.734375 -3.691406 25.90625 -2.0625 23.78125 -0.9375 C 21.664062 0.1875 19.0625 0.75 15.96875 0.75 C 13.601562 0.75 11.4375 0.359375 9.46875 -0.421875 C 7.5 -1.210938 5.800781 -2.3125 4.375 -3.71875 C 2.945312 -5.125 1.835938 -6.800781 1.046875 -8.75 C 0.265625 -10.695312 -0.125 -12.859375 -0.125 -15.234375 C -0.125 -17.554688 0.226562 -19.691406 0.9375 -21.640625 C 1.644531 -23.597656 2.671875 -25.289062 4.015625 -26.71875 C 5.359375 -28.15625 6.988281 -29.269531 8.90625 -30.0625 C 10.832031 -30.863281 12.988281 -31.265625 15.375 -31.265625 C 17.96875 -31.265625 20.238281 -30.828125 22.1875 -29.953125 C 24.132812 -29.078125 25.753906 -27.867188 27.046875 -26.328125 C 28.347656 -24.796875 29.3125 -22.957031 29.9375 -20.8125 C 30.5625 -18.664062 30.875 -16.296875 30.875 -13.703125 Z M 26.125 -17.53125 C 25.625 -20.875 24.410156 -23.363281 22.484375 -25 C 20.554688 -26.644531 18.1875 -27.46875 15.375 -27.46875 C 13.925781 -27.46875 12.585938 -27.234375 11.359375 -26.765625 C 10.140625 -26.296875 9.0625 -25.625 8.125 -24.75 C 7.1875 -23.875 6.398438 -22.816406 5.765625 -21.578125 C 5.128906 -20.347656 4.726562 -19 4.5625 -17.53125 Z M 26.125 -17.53125 "/></g></g></g><g fill="#545454" fill-opacity="1"><g transform="translate(73.884508, 54.463659)"><g><path d="M 30.875 -9.734375 C 30.519531 -6.523438 29.253906 -3.972656 27.078125 -2.078125 C 24.910156 -0.191406 22.195312 0.75 18.9375 0.75 C 17.144531 0.75 15.503906 0.457031 14.015625 -0.125 C 12.535156 -0.71875 11.269531 -1.535156 10.21875 -2.578125 C 9.175781 -3.628906 8.363281 -4.894531 7.78125 -6.375 C 7.207031 -7.851562 6.921875 -9.460938 6.921875 -11.203125 L 6.921875 -26.71875 L 0 -26.71875 L 0 -30.546875 L 6.921875 -30.546875 L 6.921875 -42.765625 L 11.40625 -42.765625 L 11.40625 -30.546875 L 24.421875 -30.546875 L 24.421875 -26.71875 L 11.40625 -26.71875 L 11.40625 -11.203125 C 11.40625 -10.085938 11.582031 -9.039062 11.9375 -8.0625 C 12.300781 -7.082031 12.804688 -6.21875 13.453125 -5.46875 C 14.097656 -4.726562 14.878906 -4.144531 15.796875 -3.71875 C 16.710938 -3.289062 17.757812 -3.078125 18.9375 -3.078125 C 21.164062 -3.078125 23.03125 -3.769531 24.53125 -5.15625 C 26.03125 -6.550781 26.890625 -8.347656 27.109375 -10.546875 Z M 30.875 -9.734375 "/></g></g></g><g fill="#545454" fill-opacity="1"><g transform="translate(110.527937, 54.463659)"><g><path d="M 4.484375 -13.703125 C 4.816406 -10.460938 6 -7.878906 8.03125 -5.953125 C 10.0625 -4.035156 12.707031 -3.078125 15.96875 -3.078125 C 18.257812 -3.078125 20.300781 -3.546875 22.09375 -4.484375 C 23.882812 -5.429688 25.226562 -6.601562 26.125 -8 L 29.265625 -5.828125 C 27.734375 -3.691406 25.90625 -2.0625 23.78125 -0.9375 C 21.664062 0.1875 19.0625 0.75 15.96875 0.75 C 13.601562 0.75 11.4375 0.359375 9.46875 -0.421875 C 7.5 -1.210938 5.800781 -2.3125 4.375 -3.71875 C 2.945312 -5.125 1.835938 -6.800781 1.046875 -8.75 C 0.265625 -10.695312 -0.125 -12.859375 -0.125 -15.234375 C -0.125 -17.554688 0.226562 -19.691406 0.9375 -21.640625 C 1.644531 -23.597656 2.671875 -25.289062 4.015625 -26.71875 C 5.359375 -28.15625 6.988281 -29.269531 8.90625 -30.0625 C 10.832031 -30.863281 12.988281 -31.265625 15.375 -31.265625 C 17.96875 -31.265625 20.238281 -30.828125 22.1875 -29.953125 C 24.132812 -29.078125 25.753906 -27.867188 27.046875 -26.328125 C 28.347656 -24.796875 29.3125 -22.957031 29.9375 -20.8125 C 30.5625 -18.664062 30.875 -16.296875 30.875 -13.703125 Z M 26.125 -17.53125 C 25.625 -20.875 24.410156 -23.363281 22.484375 -25 C 20.554688 -26.644531 18.1875 -27.46875 15.375 -27.46875 C 13.925781 -27.46875 12.585938 -27.234375 11.359375 -26.765625 C 10.140625 -26.296875 9.0625 -25.625 8.125 -24.75 C 7.1875 -23.875 6.398438 -22.816406 5.765625 -21.578125 C 5.128906 -20.347656 4.726562 -19 4.5625 -17.53125 Z M 26.125 -17.53125 "/></g></g></g><g fill="#545454" fill-opacity="1"><g transform="translate(147.171367, 54.463659)"><g><path d="M 28.875 -26.25 C 27.257812 -27.0625 25.335938 -27.46875 23.109375 -27.46875 C 21.273438 -27.46875 19.632812 -27.070312 18.1875 -26.28125 C 16.75 -25.5 15.523438 -24.46875 14.515625 -23.1875 C 13.515625 -21.90625 12.742188 -20.441406 12.203125 -18.796875 C 11.671875 -17.148438 11.40625 -15.453125 11.40625 -13.703125 L 11.40625 -3.828125 L 18.328125 -3.828125 L 18.328125 0 L 0 0 L 0 -3.828125 L 6.921875 -3.828125 L 6.921875 -26.71875 L 0 -26.71875 L 0 -30.546875 L 11.40625 -30.546875 L 11.40625 -22.875 C 13.457031 -28.46875 17.359375 -31.265625 23.109375 -31.265625 C 24.660156 -31.265625 26.007812 -31.164062 27.15625 -30.96875 C 28.300781 -30.769531 29.363281 -30.421875 30.34375 -29.921875 Z M 28.875 -26.25 "/></g></g></g><g fill="#545454" fill-opacity="1"><g transform="translate(183.814796, 54.463659)"><g><path d="M 29.734375 -8.453125 C 29.734375 -6.660156 29.285156 -5.175781 28.390625 -4 C 27.492188 -2.820312 26.335938 -1.878906 24.921875 -1.171875 C 23.515625 -0.472656 21.941406 0.0195312 20.203125 0.3125 C 18.460938 0.601562 16.765625 0.75 15.109375 0.75 C 12.335938 0.75 9.570312 0.347656 6.8125 -0.453125 C 4.0625 -1.265625 1.679688 -2.328125 -0.328125 -3.640625 L 1.671875 -7.5 C 3.921875 -6.082031 6.140625 -4.988281 8.328125 -4.21875 C 10.515625 -3.457031 12.773438 -3.078125 15.109375 -3.078125 C 21.859375 -3.078125 25.234375 -4.828125 25.234375 -8.328125 C 25.234375 -9.179688 24.953125 -9.875 24.390625 -10.40625 C 23.835938 -10.9375 23.09375 -11.367188 22.15625 -11.703125 C 21.21875 -12.046875 20.140625 -12.316406 18.921875 -12.515625 C 17.710938 -12.710938 16.441406 -12.898438 15.109375 -13.078125 C 13.398438 -13.316406 11.703125 -13.597656 10.015625 -13.921875 C 8.335938 -14.253906 6.804688 -14.75 5.421875 -15.40625 C 4.035156 -16.0625 2.921875 -16.9375 2.078125 -18.03125 C 1.234375 -19.125 0.8125 -20.566406 0.8125 -22.359375 C 0.8125 -23.878906 1.195312 -25.195312 1.96875 -26.3125 C 2.75 -27.425781 3.789062 -28.351562 5.09375 -29.09375 C 6.394531 -29.84375 7.921875 -30.390625 9.671875 -30.734375 C 11.421875 -31.085938 13.234375 -31.265625 15.109375 -31.265625 C 17.796875 -31.265625 20.195312 -30.953125 22.3125 -30.328125 C 24.4375 -29.710938 26.351562 -28.820312 28.0625 -27.65625 L 26.25 -24.15625 C 24.5 -25.375 22.726562 -26.226562 20.9375 -26.71875 C 19.144531 -27.21875 17.203125 -27.46875 15.109375 -27.46875 C 14.171875 -27.46875 13.128906 -27.382812 11.984375 -27.21875 C 10.835938 -27.050781 9.769531 -26.765625 8.78125 -26.359375 C 7.800781 -25.960938 6.976562 -25.441406 6.3125 -24.796875 C 5.644531 -24.148438 5.3125 -23.335938 5.3125 -22.359375 C 5.3125 -21.503906 5.585938 -20.816406 6.140625 -20.296875 C 6.703125 -19.785156 7.453125 -19.359375 8.390625 -19.015625 C 9.328125 -18.679688 10.398438 -18.414062 11.609375 -18.21875 C 12.828125 -18.019531 14.101562 -17.835938 15.4375 -17.671875 C 17.09375 -17.429688 18.769531 -17.144531 20.46875 -16.8125 C 22.164062 -16.488281 23.707031 -16.007812 25.09375 -15.375 C 26.476562 -14.738281 27.597656 -13.875 28.453125 -12.78125 C 29.304688 -11.6875 29.734375 -10.242188 29.734375 -8.453125 Z M 29.734375 -8.453125 "/></g></g></g><g fill="#545454" fill-opacity="1"><g transform="translate(220.458226, 54.463659)"><g><path d="M 4.484375 -13.703125 C 4.816406 -10.460938 6 -7.878906 8.03125 -5.953125 C 10.0625 -4.035156 12.707031 -3.078125 15.96875 -3.078125 C 18.257812 -3.078125 20.300781 -3.546875 22.09375 -4.484375 C 23.882812 -5.429688 25.226562 -6.601562 26.125 -8 L 29.265625 -5.828125 C 27.734375 -3.691406 25.90625 -2.0625 23.78125 -0.9375 C 21.664062 0.1875 19.0625 0.75 15.96875 0.75 C 13.601562 0.75 11.4375 0.359375 9.46875 -0.421875 C 7.5 -1.210938 5.800781 -2.3125 4.375 -3.71875 C 2.945312 -5.125 1.835938 -6.800781 1.046875 -8.75 C 0.265625 -10.695312 -0.125 -12.859375 -0.125 -15.234375 C -0.125 -17.554688 0.226562 -19.691406 0.9375 -21.640625 C 1.644531 -23.597656 2.671875 -25.289062 4.015625 -26.71875 C 5.359375 -28.15625 6.988281 -29.269531 8.90625 -30.0625 C 10.832031 -30.863281 12.988281 -31.265625 15.375 -31.265625 C 17.96875 -31.265625 20.238281 -30.828125 22.1875 -29.953125 C 24.132812 -29.078125 25.753906 -27.867188 27.046875 -26.328125 C 28.347656 -24.796875 29.3125 -22.957031 29.9375 -20.8125 C 30.5625 -18.664062 30.875 -16.296875 30.875 -13.703125 Z M 26.125 -17.53125 C 25.625 -20.875 24.410156 -23.363281 22.484375 -25 C 20.554688 -26.644531 18.1875 -27.46875 15.375 -27.46875 C 13.925781 -27.46875 12.585938 -27.234375 11.359375 -26.765625 C 10.140625 -26.296875 9.0625 -25.625 8.125 -24.75 C 7.1875 -23.875 6.398438 -22.816406 5.765625 -21.578125 C 5.128906 -20.347656 4.726562 -19 4.5625 -17.53125 Z M 26.125 -17.53125 "/></g></g></g><g fill="#545454" fill-opacity="1"><g transform="translate(257.101655, 54.463659)"><g><path d="M 28.9375 0 L 24.421875 0 L 24.421875 -2.8125 C 23.128906 -1.65625 21.710938 -0.769531 20.171875 -0.15625 C 18.628906 0.445312 17.050781 0.75 15.4375 0.75 C 13.007812 0.75 10.832031 0.359375 8.90625 -0.421875 C 6.988281 -1.210938 5.367188 -2.3125 4.046875 -3.71875 C 2.722656 -5.125 1.707031 -6.8125 1 -8.78125 C 0.289062 -10.75 -0.0625 -12.898438 -0.0625 -15.234375 C -0.0625 -17.554688 0.289062 -19.703125 1 -21.671875 C 1.707031 -23.648438 2.722656 -25.34375 4.046875 -26.75 C 5.367188 -28.164062 6.988281 -29.269531 8.90625 -30.0625 C 10.832031 -30.863281 13.007812 -31.265625 15.4375 -31.265625 C 17.050781 -31.265625 18.628906 -30.972656 20.171875 -30.390625 C 21.710938 -29.816406 23.128906 -28.953125 24.421875 -27.796875 L 24.421875 -38.9375 L 18.328125 -38.9375 L 18.328125 -42.765625 L 28.9375 -42.765625 Z M 24.421875 -23.4375 C 23.128906 -24.851562 21.722656 -25.878906 20.203125 -26.515625 C 18.679688 -27.148438 17.070312 -27.46875 15.375 -27.46875 C 13.582031 -27.46875 12.003906 -27.148438 10.640625 -26.515625 C 9.273438 -25.878906 8.128906 -25.015625 7.203125 -23.921875 C 6.285156 -22.828125 5.59375 -21.539062 5.125 -20.0625 C 4.65625 -18.59375 4.421875 -16.984375 4.421875 -15.234375 C 4.421875 -13.492188 4.65625 -11.882812 5.125 -10.40625 C 5.59375 -8.925781 6.285156 -7.640625 7.203125 -6.546875 C 8.128906 -5.460938 9.273438 -4.601562 10.640625 -3.96875 C 12.003906 -3.332031 13.582031 -3.015625 15.375 -3.015625 C 18.820312 -3.015625 21.835938 -4.378906 24.421875 -7.109375 Z M 24.421875 -23.4375 "/></g></g></g><g fill="#545454" fill-opacity="1"><g transform="translate(293.745085, 54.463659)"><g><path d="M 18.328125 -36.640625 L 12.21875 -36.640625 L 12.21875 -42.765625 L 18.328125 -42.765625 Z M 24.421875 0 L 6.09375 0 L 6.09375 -3.828125 L 13.015625 -3.828125 L 13.015625 -26.71875 L 6.09375 -26.71875 L 6.09375 -30.546875 L 17.53125 -30.546875 L 17.53125 -3.828125 L 24.421875 -3.828125 Z M 24.421875 0 "/></g></g></g><g fill="#545454" fill-opacity="1"><g transform="translate(330.388515, 54.463659)"><g><path d="M -0.0625 -8.265625 C -0.0625 -10.179688 0.414062 -11.789062 1.375 -13.09375 C 2.332031 -14.394531 3.59375 -15.421875 5.15625 -16.171875 C 6.71875 -16.929688 8.507812 -17.476562 10.53125 -17.8125 C 12.550781 -18.15625 14.613281 -18.328125 16.71875 -18.328125 C 17.519531 -18.328125 18.242188 -18.3125 18.890625 -18.28125 C 19.535156 -18.257812 20.144531 -18.226562 20.71875 -18.1875 C 21.300781 -18.144531 21.890625 -18.085938 22.484375 -18.015625 C 23.078125 -17.953125 23.722656 -17.878906 24.421875 -17.796875 L 24.421875 -20 C 24.421875 -21.476562 24.097656 -22.695312 23.453125 -23.65625 C 22.804688 -24.625 22.015625 -25.382812 21.078125 -25.9375 C 20.140625 -26.5 19.15625 -26.894531 18.125 -27.125 C 17.09375 -27.351562 16.21875 -27.46875 15.5 -27.46875 C 13.226562 -27.46875 11.128906 -27.160156 9.203125 -26.546875 C 7.285156 -25.929688 5.492188 -25.113281 3.828125 -24.09375 L 1.796875 -27.46875 C 3.640625 -28.582031 5.703125 -29.492188 7.984375 -30.203125 C 10.265625 -30.910156 12.769531 -31.265625 15.5 -31.265625 C 17.164062 -31.265625 18.800781 -31.050781 20.40625 -30.625 C 22.007812 -30.195312 23.445312 -29.539062 24.71875 -28.65625 C 26 -27.769531 27.019531 -26.609375 27.78125 -25.171875 C 28.550781 -23.734375 28.9375 -22.007812 28.9375 -20 L 28.9375 0 L 24.421875 0 L 24.421875 -5.109375 C 23.628906 -4.128906 22.734375 -3.265625 21.734375 -2.515625 C 20.742188 -1.773438 19.703125 -1.171875 18.609375 -0.703125 C 17.523438 -0.234375 16.4375 0.125 15.34375 0.375 C 14.25 0.625 13.207031 0.75 12.21875 0.75 C 8.175781 0.75 5.117188 -0.0234375 3.046875 -1.578125 C 0.972656 -3.128906 -0.0625 -5.359375 -0.0625 -8.265625 Z M 12.21875 -3.078125 C 14.101562 -3.078125 15.789062 -3.351562 17.28125 -3.90625 C 18.78125 -4.46875 20.054688 -5.164062 21.109375 -6 C 22.160156 -6.832031 22.972656 -7.71875 23.546875 -8.65625 C 24.128906 -9.59375 24.421875 -10.441406 24.421875 -11.203125 L 24.421875 -14.09375 C 22.953125 -14.3125 21.546875 -14.429688 20.203125 -14.453125 C 18.859375 -14.472656 17.695312 -14.484375 16.71875 -14.484375 C 15.101562 -14.484375 13.546875 -14.375 12.046875 -14.15625 C 10.546875 -13.9375 9.238281 -13.582031 8.125 -13.09375 C 7.007812 -12.601562 6.113281 -11.960938 5.4375 -11.171875 C 4.757812 -10.390625 4.421875 -9.421875 4.421875 -8.265625 C 4.421875 -6.972656 5.046875 -5.785156 6.296875 -4.703125 C 7.554688 -3.617188 9.53125 -3.078125 12.21875 -3.078125 Z M 12.21875 -3.078125 "/></g></g></g><g fill="#545454" fill-opacity="1"><g transform="translate(367.031944, 54.463659)"><g><path d="M -0.0625 -8.265625 C -0.0625 -10.179688 0.414062 -11.789062 1.375 -13.09375 C 2.332031 -14.394531 3.59375 -15.421875 5.15625 -16.171875 C 6.71875 -16.929688 8.507812 -17.476562 10.53125 -17.8125 C 12.550781 -18.15625 14.613281 -18.328125 16.71875 -18.328125 C 17.519531 -18.328125 18.242188 -18.3125 18.890625 -18.28125 C 19.535156 -18.257812 20.144531 -18.226562 20.71875 -18.1875 C 21.300781 -18.144531 21.890625 -18.085938 22.484375 -18.015625 C 23.078125 -17.953125 23.722656 -17.878906 24.421875 -17.796875 L 24.421875 -20 C 24.421875 -21.476562 24.097656 -22.695312 23.453125 -23.65625 C 22.804688 -24.625 22.015625 -25.382812 21.078125 -25.9375 C 20.140625 -26.5 19.15625 -26.894531 18.125 -27.125 C 17.09375 -27.351562 16.21875 -27.46875 15.5 -27.46875 C 13.226562 -27.46875 11.128906 -27.160156 9.203125 -26.546875 C 7.285156 -25.929688 5.492188 -25.113281 3.828125 -24.09375 L 1.796875 -27.46875 C 3.640625 -28.582031 5.703125 -29.492188 7.984375 -30.203125 C 10.265625 -30.910156 12.769531 -31.265625 15.5 -31.265625 C 17.164062 -31.265625 18.800781 -31.050781 20.40625 -30.625 C 22.007812 -30.195312 23.445312 -29.539062 24.71875 -28.65625 C 26 -27.769531 27.019531 -26.609375 27.78125 -25.171875 C 28.550781 -23.734375 28.9375 -22.007812 28.9375 -20 L 28.9375 0 L 24.421875 0 L 24.421875 -5.109375 C 23.628906 -4.128906 22.734375 -3.265625 21.734375 -2.515625 C 20.742188 -1.773438 19.703125 -1.171875 18.609375 -0.703125 C 17.523438 -0.234375 16.4375 0.125 15.34375 0.375 C 14.25 0.625 13.207031 0.75 12.21875 0.75 C 8.175781 0.75 5.117188 -0.0234375 3.046875 -1.578125 C 0.972656 -3.128906 -0.0625 -5.359375 -0.0625 -8.265625 Z M 12.21875 -3.078125 C 14.101562 -3.078125 15.789062 -3.351562 17.28125 -3.90625 C 18.78125 -4.46875 20.054688 -5.164062 21.109375 -6 C 22.160156 -6.832031 22.972656 -7.71875 23.546875 -8.65625 C 24.128906 -9.59375 24.421875 -10.441406 24.421875 -11.203125 L 24.421875 -14.09375 C 22.953125 -14.3125 21.546875 -14.429688 20.203125 -14.453125 C 18.859375 -14.472656 17.695312 -14.484375 16.71875 -14.484375 C 15.101562 -14.484375 13.546875 -14.375 12.046875 -14.15625 C 10.546875 -13.9375 9.238281 -13.582031 8.125 -13.09375 C 7.007812 -12.601562 6.113281 -11.960938 5.4375 -11.171875 C 4.757812 -10.390625 4.421875 -9.421875 4.421875 -8.265625 C 4.421875 -6.972656 5.046875 -5.785156 6.296875 -4.703125 C 7.554688 -3.617188 9.53125 -3.078125 12.21875 -3.078125 Z M 12.21875 -3.078125 "/></g></g></g><g fill="#545454" fill-opacity="1"><g transform="translate(403.675374, 54.463659)"><g><path d="M 28.9375 0 L 24.421875 0 L 24.421875 -18.84375 C 24.421875 -21.570312 23.828125 -23.691406 22.640625 -25.203125 C 21.460938 -26.710938 19.550781 -27.46875 16.90625 -27.46875 C 15.25 -27.46875 13.75 -27.082031 12.40625 -26.3125 C 11.0625 -25.550781 9.921875 -24.53125 8.984375 -23.25 C 8.046875 -21.976562 7.328125 -20.515625 6.828125 -18.859375 C 6.335938 -17.210938 6.09375 -15.492188 6.09375 -13.703125 L 6.09375 0 L 1.609375 0 L 1.609375 -30.546875 L 6.09375 -30.546875 L 6.09375 -22.875 C 8.257812 -28.46875 12.117188 -31.265625 17.671875 -31.265625 C 25.179688 -31.265625 28.9375 -27.125 28.9375 -18.84375 Z M 28.9375 0 "/></g></g></g><g fill="#545454" fill-opacity="1"><g transform="translate(440.320269, 54.463659)"><g/></g></g></g></g></g><g mask="url(#8e47b9fa07)"><g transform="matrix(1, 0, 0, 1, 273, 144)"><g clip-path="url(#05bb48985b)"><g fill="#545454" fill-opacity="1"><g transform="translate(0.574211, 54.786312)"><g><path d="M 30.484375 -30.546875 C 30.484375 -26.421875 29.191406 -23.351562 26.609375 -21.34375 C 24.035156 -19.332031 20.421875 -18.328125 15.765625 -18.328125 L 6.09375 -18.328125 L 6.09375 0 L 1.609375 0 L 1.609375 -42.765625 L 15.703125 -42.765625 C 20.398438 -42.765625 24.035156 -41.742188 26.609375 -39.703125 C 29.191406 -37.660156 30.484375 -34.609375 30.484375 -30.546875 Z M 25.984375 -30.546875 C 25.984375 -33.492188 25.054688 -35.628906 23.203125 -36.953125 C 21.347656 -38.273438 18.867188 -38.9375 15.765625 -38.9375 L 6.09375 -38.9375 L 6.09375 -22.15625 L 15.765625 -22.15625 C 18.867188 -22.15625 21.347656 -22.816406 23.203125 -24.140625 C 25.054688 -25.460938 25.984375 -27.597656 25.984375 -30.546875 Z M 25.984375 -30.546875 "/></g></g></g><g fill="#545454" fill-opacity="1"><g transform="translate(37.217641, 54.786312)"><g><path d="M -0.0625 -8.265625 C -0.0625 -10.179688 0.414062 -11.789062 1.375 -13.09375 C 2.332031 -14.394531 3.59375 -15.421875 5.15625 -16.171875 C 6.71875 -16.929688 8.507812 -17.476562 10.53125 -17.8125 C 12.550781 -18.15625 14.613281 -18.328125 16.71875 -18.328125 C 17.519531 -18.328125 18.242188 -18.3125 18.890625 -18.28125 C 19.535156 -18.257812 20.144531 -18.226562 20.71875 -18.1875 C 21.300781 -18.144531 21.890625 -18.085938 22.484375 -18.015625 C 23.078125 -17.953125 23.722656 -17.878906 24.421875 -17.796875 L 24.421875 -20 C 24.421875 -21.476562 24.097656 -22.695312 23.453125 -23.65625 C 22.804688 -24.625 22.015625 -25.382812 21.078125 -25.9375 C 20.140625 -26.5 19.15625 -26.894531 18.125 -27.125 C 17.09375 -27.351562 16.21875 -27.46875 15.5 -27.46875 C 13.226562 -27.46875 11.128906 -27.160156 9.203125 -26.546875 C 7.285156 -25.929688 5.492188 -25.113281 3.828125 -24.09375 L 1.796875 -27.46875 C 3.640625 -28.582031 5.703125 -29.492188 7.984375 -30.203125 C 10.265625 -30.910156 12.769531 -31.265625 15.5 -31.265625 C 17.164062 -31.265625 18.800781 -31.050781 20.40625 -30.625 C 22.007812 -30.195312 23.445312 -29.539062 24.71875 -28.65625 C 26 -27.769531 27.019531 -26.609375 27.78125 -25.171875 C 28.550781 -23.734375 28.9375 -22.007812 28.9375 -20 L 28.9375 0 L 24.421875 0 L 24.421875 -5.109375 C 23.628906 -4.128906 22.734375 -3.265625 21.734375 -2.515625 C 20.742188 -1.773438 19.703125 -1.171875 18.609375 -0.703125 C 17.523438 -0.234375 16.4375 0.125 15.34375 0.375 C 14.25 0.625 13.207031 0.75 12.21875 0.75 C 8.175781 0.75 5.117188 -0.0234375 3.046875 -1.578125 C 0.972656 -3.128906 -0.0625 -5.359375 -0.0625 -8.265625 Z M 12.21875 -3.078125 C 14.101562 -3.078125 15.789062 -3.351562 17.28125 -3.90625 C 18.78125 -4.46875 20.054688 -5.164062 21.109375 -6 C 22.160156 -6.832031 22.972656 -7.71875 23.546875 -8.65625 C 24.128906 -9.59375 24.421875 -10.441406 24.421875 -11.203125 L 24.421875 -14.09375 C 22.953125 -14.3125 21.546875 -14.429688 20.203125 -14.453125 C 18.859375 -14.472656 17.695312 -14.484375 16.71875 -14.484375 C 15.101562 -14.484375 13.546875 -14.375 12.046875 -14.15625 C 10.546875 -13.9375 9.238281 -13.582031 8.125 -13.09375 C 7.007812 -12.601562 6.113281 -11.960938 5.4375 -11.171875 C 4.757812 -10.390625 4.421875 -9.421875 4.421875 -8.265625 C 4.421875 -6.972656 5.046875 -5.785156 6.296875 -4.703125 C 7.554688 -3.617188 9.53125 -3.078125 12.21875 -3.078125 Z M 12.21875 -3.078125 "/></g></g></g><g fill="#545454" fill-opacity="1"><g transform="translate(73.86107, 54.786312)"><g><path d="M 28.9375 0 L 24.421875 0 L 24.421875 -18.84375 C 24.421875 -21.570312 23.828125 -23.691406 22.640625 -25.203125 C 21.460938 -26.710938 19.550781 -27.46875 16.90625 -27.46875 C 15.25 -27.46875 13.75 -27.082031 12.40625 -26.3125 C 11.0625 -25.550781 9.921875 -24.53125 8.984375 -23.25 C 8.046875 -21.976562 7.328125 -20.515625 6.828125 -18.859375 C 6.335938 -17.210938 6.09375 -15.492188 6.09375 -13.703125 L 6.09375 0 L 1.609375 0 L 1.609375 -30.546875 L 6.09375 -30.546875 L 6.09375 -22.875 C 8.257812 -28.46875 12.117188 -31.265625 17.671875 -31.265625 C 25.179688 -31.265625 28.9375 -27.125 28.9375 -18.84375 Z M 28.9375 0 "/></g></g></g><g fill="#545454" fill-opacity="1"><g transform="translate(110.5045, 54.786312)"><g><path d="M 28.9375 -0.328125 C 28.9375 1.765625 28.578125 3.628906 27.859375 5.265625 C 27.140625 6.910156 26.128906 8.300781 24.828125 9.4375 C 23.523438 10.570312 21.992188 11.441406 20.234375 12.046875 C 18.472656 12.648438 16.515625 12.953125 14.359375 12.953125 C 11.316406 12.953125 8.726562 12.378906 6.59375 11.234375 C 4.46875 10.097656 2.628906 8.460938 1.078125 6.328125 L 4.234375 3.90625 C 5.171875 5.320312 6.523438 6.507812 8.296875 7.46875 C 10.066406 8.4375 12.085938 8.921875 14.359375 8.921875 C 17.460938 8.921875 19.914062 8.140625 21.71875 6.578125 C 23.519531 5.015625 24.421875 2.753906 24.421875 -0.203125 L 24.421875 -3.46875 C 21.753906 -1.113281 18.71875 0.0625 15.3125 0.0625 C 10.519531 0.0625 6.757812 -1.300781 4.03125 -4.03125 C 1.300781 -6.757812 -0.0625 -10.492188 -0.0625 -15.234375 C -0.0625 -17.554688 0.289062 -19.691406 1 -21.640625 C 1.707031 -23.597656 2.722656 -25.289062 4.046875 -26.71875 C 5.367188 -28.15625 6.976562 -29.269531 8.875 -30.0625 C 10.78125 -30.863281 12.925781 -31.265625 15.3125 -31.265625 C 16.96875 -31.265625 18.578125 -30.972656 20.140625 -30.390625 C 21.703125 -29.816406 23.128906 -28.953125 24.421875 -27.796875 L 24.421875 -30.546875 L 28.9375 -30.546875 Z M 24.421875 -23.4375 C 23.128906 -24.851562 21.710938 -25.878906 20.171875 -26.515625 C 18.628906 -27.148438 17.007812 -27.46875 15.3125 -27.46875 C 13.519531 -27.46875 11.9375 -27.148438 10.5625 -26.515625 C 9.195312 -25.878906 8.066406 -25.015625 7.171875 -23.921875 C 6.273438 -22.828125 5.59375 -21.53125 5.125 -20.03125 C 4.65625 -18.539062 4.421875 -16.941406 4.421875 -15.234375 C 4.421875 -11.742188 5.328125 -8.957031 7.140625 -6.875 C 8.953125 -4.800781 11.675781 -3.765625 15.3125 -3.765625 C 17.007812 -3.765625 18.628906 -4.085938 20.171875 -4.734375 C 21.710938 -5.378906 23.128906 -6.421875 24.421875 -7.859375 Z M 24.421875 -23.4375 "/></g></g></g><g fill="#545454" fill-opacity="1"><g transform="translate(147.147929, 54.786312)"><g><path d="M -0.0625 -8.265625 C -0.0625 -10.179688 0.414062 -11.789062 1.375 -13.09375 C 2.332031 -14.394531 3.59375 -15.421875 5.15625 -16.171875 C 6.71875 -16.929688 8.507812 -17.476562 10.53125 -17.8125 C 12.550781 -18.15625 14.613281 -18.328125 16.71875 -18.328125 C 17.519531 -18.328125 18.242188 -18.3125 18.890625 -18.28125 C 19.535156 -18.257812 20.144531 -18.226562 20.71875 -18.1875 C 21.300781 -18.144531 21.890625 -18.085938 22.484375 -18.015625 C 23.078125 -17.953125 23.722656 -17.878906 24.421875 -17.796875 L 24.421875 -20 C 24.421875 -21.476562 24.097656 -22.695312 23.453125 -23.65625 C 22.804688 -24.625 22.015625 -25.382812 21.078125 -25.9375 C 20.140625 -26.5 19.15625 -26.894531 18.125 -27.125 C 17.09375 -27.351562 16.21875 -27.46875 15.5 -27.46875 C 13.226562 -27.46875 11.128906 -27.160156 9.203125 -26.546875 C 7.285156 -25.929688 5.492188 -25.113281 3.828125 -24.09375 L 1.796875 -27.46875 C 3.640625 -28.582031 5.703125 -29.492188 7.984375 -30.203125 C 10.265625 -30.910156 12.769531 -31.265625 15.5 -31.265625 C 17.164062 -31.265625 18.800781 -31.050781 20.40625 -30.625 C 22.007812 -30.195312 23.445312 -29.539062 24.71875 -28.65625 C 26 -27.769531 27.019531 -26.609375 27.78125 -25.171875 C 28.550781 -23.734375 28.9375 -22.007812 28.9375 -20 L 28.9375 0 L 24.421875 0 L 24.421875 -5.109375 C 23.628906 -4.128906 22.734375 -3.265625 21.734375 -2.515625 C 20.742188 -1.773438 19.703125 -1.171875 18.609375 -0.703125 C 17.523438 -0.234375 16.4375 0.125 15.34375 0.375 C 14.25 0.625 13.207031 0.75 12.21875 0.75 C 8.175781 0.75 5.117188 -0.0234375 3.046875 -1.578125 C 0.972656 -3.128906 -0.0625 -5.359375 -0.0625 -8.265625 Z M 12.21875 -3.078125 C 14.101562 -3.078125 15.789062 -3.351562 17.28125 -3.90625 C 18.78125 -4.46875 20.054688 -5.164062 21.109375 -6 C 22.160156 -6.832031 22.972656 -7.71875 23.546875 -8.65625 C 24.128906 -9.59375 24.421875 -10.441406 24.421875 -11.203125 L 24.421875 -14.09375 C 22.953125 -14.3125 21.546875 -14.429688 20.203125 -14.453125 C 18.859375 -14.472656 17.695312 -14.484375 16.71875 -14.484375 C 15.101562 -14.484375 13.546875 -14.375 12.046875 -14.15625 C 10.546875 -13.9375 9.238281 -13.582031 8.125 -13.09375 C 7.007812 -12.601562 6.113281 -11.960938 5.4375 -11.171875 C 4.757812 -10.390625 4.421875 -9.421875 4.421875 -8.265625 C 4.421875 -6.972656 5.046875 -5.785156 6.296875 -4.703125 C 7.554688 -3.617188 9.53125 -3.078125 12.21875 -3.078125 Z M 12.21875 -3.078125 "/></g></g></g><g fill="#545454" fill-opacity="1"><g transform="translate(183.791359, 54.786312)"><g><path d="M 28.9375 0 L 24.421875 0 L 24.421875 -18.84375 C 24.421875 -21.570312 23.828125 -23.691406 22.640625 -25.203125 C 21.460938 -26.710938 19.550781 -27.46875 16.90625 -27.46875 C 15.25 -27.46875 13.75 -27.082031 12.40625 -26.3125 C 11.0625 -25.550781 9.921875 -24.53125 8.984375 -23.25 C 8.046875 -21.976562 7.328125 -20.515625 6.828125 -18.859375 C 6.335938 -17.210938 6.09375 -15.492188 6.09375 -13.703125 L 6.09375 0 L 1.609375 0 L 1.609375 -30.546875 L 6.09375 -30.546875 L 6.09375 -22.875 C 8.257812 -28.46875 12.117188 -31.265625 17.671875 -31.265625 C 25.179688 -31.265625 28.9375 -27.125 28.9375 -18.84375 Z M 28.9375 0 "/></g></g></g></g></g></g></svg>